<?xml version="1.0" encoding="UTF-8"?>
<svg id="Layer_2" data-name="Layer 2" xmlns="http://www.w3.org/2000/svg" viewBox="0 0 789.73 372.71">
  <defs>
    <style>
      .cls-1 {
        fill: #eb8668;
      }

      .cls-2 {
        fill: #bbbcbf;
      }

      .cls-3 {
        fill: #e45830;
      }

      .cls-4 {
        fill: #e45930;
      }

      .cls-5 {
        fill: #3b3b3d;
      }

      .cls-6 {
        fill: #3a3a3c;
      }

      .cls-7 {
        fill: #39393b;
      }
    </style>
  </defs>
  <g id="Layer_1-2" data-name="Layer 1">
    <g>
      <path class="cls-2" d="M302.53,206.48V111.7c-5.17,2.17-9.54,5.16-14.09,7.78-26.44,15.22-52.85,30.49-79.23,45.81-2.26,1.31-3.89,.53-5.83-.6-29.63-17.16-59.29-34.26-88.95-51.37-.65-.37-1.33-.68-2-1.02-1.6,.13-2.88-.72-4.17-1.46C73.09,90.51,37.87,70.24,2.67,49.93c-.98-.56-1.93-1.14-2.67-2,4.61-3.48,10.18-4.97,15.36-7.23C42.97,28.59,70.67,16.68,98.35,4.7c1.72-.74,3.6-1.23,5.12-2.26,5.83-3.93,10.99-2.7,16.81,.66,16.19,9.35,32.68,18.17,49.06,27.19,11.68,6.43,23.4,12.8,35.04,19.32,1.76,.99,3.06,.98,4.79,.05,26.01-14.01,52.06-27.96,78.1-41.93,4.29-2.3,8.6-4.55,12.87-6.88,1.53-.83,2.88-.99,4.58-.25,32.04,13.81,64.12,27.53,96.15,41.35,4.27,1.84,8.9,3.01,12.64,5.98-1.67,1.96-4.01,2.93-6.16,4.16-33.11,18.97-66.05,38.25-99.23,57.1-2.94,1.67-3.71,3.9-3.7,7.05,.07,28.17,.05,56.34,.02,84.51,0,1.96,.39,4.01-.81,5.82-.39,.29-.76,.26-1.09-.09Z"/>
      <path class="cls-7" d="M0,47.93c1.13-.3,1.9,.49,2.73,.97,36.28,20.89,72.56,41.81,108.83,62.72,.32,.18,.6,.45,.89,.68-.14,30.43-.29,60.86-.38,91.3,0,2.02-.26,3.36-2.48,4.29-35.6,14.89-71.16,29.89-106.73,44.85-.79,.33-1.6,.6-2.86,1.07V47.93Z"/>
      <path class="cls-7" d="M413.66,101.03c-.04,26.19-.1,52.39-.12,78.58-.02,24.57,0,49.14,0,73.82-1.7,.2-2.92-.76-4.22-1.32-32.18-13.71-64.35-27.48-96.54-41.19-3.09-1.32-6.28-2.37-9.43-3.55-.25-.23-.35-.5-.29-.83,.09-1.49,.25-2.97,.25-4.46,0-29.18,.03-58.36-.09-87.54-.01-2.73,.83-4.19,3.2-5.55,34.71-19.91,69.36-39.92,104.04-59.89,.94-.54,1.78-1.44,3.04-1.18,.05,4.98,.1,9.96,.16,14.93"/>
      <path class="cls-7" d="M206.74,372.7c-1.24,.08-2.05-.81-2.99-1.35-66.36-38.01-132.71-76.03-199.06-114.05-.86-.49-1.68-1.04-2.99-1.85,4.79-2.03,9.21-3.9,13.63-5.77,31.66-13.33,63.32-26.63,94.95-40.01,2.28-.96,3.99-.91,6.2,.4,29.78,17.67,59.63,35.22,89.46,52.8,.75,.58,.97,1.41,1.12,2.29,.14,.86,.18,1.73,.16,2.61-.54,33.09,1.06,66.17,.75,99.26-.02,1.96,.26,4.03-1.23,5.69Z"/>
      <path class="cls-3" d="M206.74,372.7c-.27-36.61-.53-73.22-.8-109.83,32.2-18.8,64.39-37.59,96.59-56.39,.17,.06,.35,.08,.53,.06,.1,.28,.19,.56,.29,.83-.07,1.61-.21,3.23-.21,4.84-.01,34.39-.04,68.78,.06,103.17,0,2.86-.81,4.41-3.37,5.83-30.06,16.66-60.05,33.46-90.06,50.2-.95,.53-1.79,1.4-3.02,1.28Z"/>
      <path class="cls-4" d="M549.88,47.88c.02,15.58,.12,31.15-.01,46.73-.02,2.85,.78,3.52,3.54,3.48,9-.12,9,0,9-8.84,0-12.71-.02-25.42,.03-38.13,0-1.42-.79-3.44,1.98-3.51,2.85-.08,2.41,1.9,2.41,3.58,.02,15.83-.04,31.65,.06,47.48,.02,2.77-.6,3.94-3.73,3.88-10.22-.21-20.45-.16-30.68-.02-2.64,.03-3.72-.46-3.69-3.43,.16-17.07,.11-34.14,.13-51.22h0c3.53-1.04,4.48,.34,4.44,3.88-.18,14.18-.01,28.36-.13,42.54-.02,2.74,.45,3.88,3.58,3.81,8.69-.18,8.69-.02,8.69-8.71,0-12.56,.13-25.13-.08-37.69-.06-3.62,1-4.85,4.47-3.82h0Z"/>
      <path class="cls-4" d="M441.33,62.84c.06-3.98,.1-7.96,.2-11.94,.04-1.39-.51-3.12,1.89-3.3,2-.15,3.17,.43,3.88,2.49,3.22,9.27,6.6,18.49,9.94,27.72,.24,.67,.58,1.31,1.2,2.69,1.63-4.36,3.06-8.13,4.44-11.92,2.21-6.07,4.49-12.12,6.53-18.25,.73-2.2,1.89-2.99,4.09-2.71,2.47,.31,1.57,2.21,1.58,3.48,.06,16.06,0,32.13,.07,48.19,.01,3.24-1.14,4-3.94,2.51-.77-4.18-.26-8.39-.31-12.59-.09-8.81,0-17.62-.09-26.43,0-.31,1.04-2.2-.97-1.27-3.03,8.42-6.05,16.83-9.08,25.25-.42,1.17-.69,2.39-2.4,2.36-1.68-.03-1.94-1.25-2.37-2.43-2.68-7.36-5.36-14.71-8.06-22.06-.45-1.21-1.01-2.38-2.12-3.4,0,12.76,.01,25.52-.02,38.28,0,1.02,.52,2.45-1.03,2.82-1.34,.32-2.78,.36-3.44-1.33,.3-11.23,.3-22.46,0-33.69"/>
      <path class="cls-4" d="M582.12,90.53c7.02-13.61,14.05-27.21,21.04-40.83,.78-1.53,1.78-2.38,3.51-2.01,2.01,.43,1.39,2.12,1.4,3.36,.04,15.96,.04,31.92,.02,47.88,0,1.67,.48,3.66-2.4,3.57-2.76-.09-1.99-2.08-2-3.5-.05-13.2-.03-26.41-.03-39.69-1.44,.27-1.54,1.57-2,2.47-6.55,12.59-13.04,25.22-19.56,37.82-.5,.97-.76,2.27-1.92,2.65-2.87,.95-3.32-.6-3.31-3.08,.07-14.59,.04-29.17,.04-43.76,0-1.62,.03-3.24,0-4.86-.04-1.59-.07-2.95,2.23-2.95,2.26,0,2.27,1.31,2.26,2.93-.02,12.47-.01,24.94-.01,37.4,0,.87,.02,1.75,.02,2.62,.41,.53-.08,.96-.16,1.43,.34-.45,.48-1.02,.88-1.43Z"/>
      <path class="cls-4" d="M781.57,59.54c-3.25,6.25-6.51,12.49-9.74,18.75-3.72,7.19-7.43,14.37-11.11,21.58-.78,1.52-1.56,2.97-3.59,2.54-2.3-.49-1.29-2.42-1.3-3.68-.08-15.83-.07-31.66-.02-47.49,0-1.54-.82-3.74,2.21-3.63,2.92,.11,2.14,2.26,2.14,3.82,.05,12.83,.03,25.66,.03,38.87,1.62-.94,1.9-2.34,2.49-3.46,6.23-11.91,12.42-23.85,18.62-35.78,.46-.88,.86-1.81,1.45-2.6,.78-1.07,1.98-.94,3.08-.69,1.19,.28,.89,1.35,.89,2.16,.02,16.7,0,33.41,.04,50.11,0,1.67-.42,2.51-2.3,2.46-2.32-.05-2.16-1.56-2.16-3.08,0-12.09,0-24.18,0-36.27v-3.35c-.24-.08-.48-.16-.72-.24Z"/>
      <path class="cls-6" d="M576.9,225.35c0-8.23,.07-16.46-.05-24.68-.03-2.28,.68-3.03,2.98-3,8.48,.11,16.97,.12,25.45,0,2.42-.03,2.92,.99,2.92,3.13-.05,16.33-.04,32.66-.01,48.99,0,1.66-.11,2.92-2.31,2.94-2.36,.02-2.15-1.47-2.15-3,0-14.71-.07-29.42,.07-44.13,.03-2.8-.68-3.65-3.52-3.52-5.35,.24-10.73,.2-16.09,0-2.4-.08-2.88,.73-2.87,2.96,.09,14.71,.06,29.42,.02,44.13,0,1.12,.73,2.76-.89,3.27-1.96,.62-3.64,.59-3.59-2.41,.12-8.23,.04-16.45,.04-24.68Z"/>
      <path class="cls-6" d="M652.7,147.95c0,8.1,.01,16.2-.01,24.31,0,1.4,.51,3.03-2.01,3.07-2.56,.03-2.39-1.5-2.39-3.18,.01-14.58-.07-29.17,.07-43.75,.03-2.72-.53-3.75-3.44-3.54-3.85,.28-7.73,.17-11.6,.03-1.96-.07-2.49,.57-2.59,2.5-.65,11.57-1.45,23.13-2.23,34.69-.16,2.36-.29,4.74-.72,7.06-.88,4.68-4.63,7.18-9.35,6.61-1.42-.17-1.99-.72-1.94-2.11,.04-1.17-.03-2.38,1.67-2.23,4.85,.42,5.47-2.9,5.71-6.47,.86-13.05,1.71-26.11,2.5-39.17,.32-5.27,.25-5.28,5.36-5.28,5.74,0,11.49,.2,17.21-.08,3.25-.16,3.9,1,3.83,4-.2,7.85-.07,15.7-.07,23.56Z"/>
      <path class="cls-4" d="M621.69,74.91c0-8.11,0-16.21,0-24.32,0-1.51-.24-3.03,2.14-3.01,2.22,.01,2.32,1.3,2.32,2.94-.03,6.98,.09,13.97-.06,20.95-.06,2.5,.5,3.52,3.24,3.41,5.36-.22,10.74-.18,16.1-.01,2.38,.08,2.94-.76,2.9-2.99-.12-6.98-.05-13.97-.04-20.95,0-1.59-.37-3.34,2.25-3.34,2.71,0,2.14,1.86,2.14,3.37,.02,16.09,.02,32.18,0,48.26,0,1.55,.47,3.36-2.23,3.28-2.65-.08-2.15-1.91-2.16-3.43-.04-5.74-.07-11.47,.02-17.21,.03-1.87-.46-2.66-2.5-2.62-5.74,.11-11.48,.12-17.22,0-2.04-.04-2.52,.75-2.49,2.62,.09,5.74,.05,11.47,.02,17.21,0,1.55,.43,3.34-2.19,3.43-2.7,.09-2.23-1.71-2.24-3.26-.02-8.11,0-16.21,0-24.32Z"/>
      <path class="cls-5" d="M681.9,197.72c4.37,0,8.74,.04,13.11-.02,1.66-.02,2.49,.43,2.53,2.31,.04,2.03-1.03,2.16-2.58,2.15-7.12-.04-14.23,.06-21.34-.06-2.2-.04-3.09,.44-3.02,2.86,.18,5.86,.12,11.72,.02,17.58-.03,1.95,.59,2.63,2.56,2.59,4.74-.11,9.49-.05,14.23-.03,1.56,0,3.36-.46,3.27,2.24-.09,2.63-1.89,2.16-3.44,2.17-4.62,.03-9.24,.1-13.85-.03-2.1-.06-2.85,.58-2.78,2.75,.15,4.36,.21,8.74-.01,13.09-.13,2.66,.99,3.07,3.28,3.03,6.86-.12,13.73-.06,20.6-.03,1.39,0,3.04-.5,3.07,2.02,.04,2.61-1.59,2.35-3.22,2.35-8.36,0-16.73-.06-25.09,.04-2.26,.03-3.05-.68-3.04-2.99,.08-16.34,.07-32.68,0-49.02,0-2.22,.62-3.14,2.97-3.05,4.24,.16,8.49,.04,12.73,.04Z"/>
      <path class="cls-6" d="M742.28,124.17c-1.13,1.12-2.58,.73-3.91,.73-6.74,.03-13.47,.08-20.21-.03-2.04-.03-2.82,.45-2.76,2.65,.15,5.85,.16,11.72,0,17.57-.06,2.31,.88,2.63,2.84,2.58,5.49-.13,10.97-.08,16.46-.1q1.02,4.46-3.33,4.48c-4.49,0-8.98,.1-13.46-.04-2.01-.06-2.55,.66-2.51,2.57,.11,4.6,.14,9.22,0,13.82-.06,2.04,.69,2.49,2.57,2.46,6.98-.09,13.96-.04,20.94-.04,1.63,0,3.32-.29,3.32,2.27,0,2.68-1.84,2.15-3.37,2.16-8.23,.02-16.45-.06-24.68,.05-2.29,.03-3.28-.38-3.26-3.02,.12-16.31,.07-32.63,.06-48.94,0-1.54-.21-2.95,2.17-2.92,9.1,.1,18.2,.05,27.29,.03,.84,0,1.41,.37,1.91,.95,.72,.67,.69,1.36,.05,2.07-.17,.2-.22,.43-.14,.68Z"/>
      <path class="cls-6" d="M520.94,198.1c-4.78,8.01-9.26,15.75-13.99,23.34-1.4,2.24-1.35,3.81,.05,6.02,5.12,8.08,9.99,16.32,15.08,24.7-3.11,1.2-4.99,.48-6.6-2.31-4.03-7.02-8.32-13.89-12.53-20.81-1.16-1.92-8.62-3.51-10.37-2.19-.96,.73-.53,1.85-.54,2.79-.04,6.49,0,12.97-.03,19.46,0,1.65,.58,3.66-2.32,3.63-2.75-.02-2.06-1.95-2.07-3.42-.03-16.09-.03-32.18,0-48.27,0-1.47-.67-3.39,2.12-3.34,2.59,.04,2.27,1.73,2.28,3.34,0,6.11,.08,12.23-.04,18.33-.04,2.14,.38,2.83,2.78,3.07,4.94,.5,7.97-1.04,10.19-5.67,2.63-5.48,6.24-10.48,9.16-15.84,1.48-2.72,3.3-3.88,6.82-2.83Z"/>
      <path class="cls-4" d="M739.41,56.7c-.77,.62-1.22,1.44-1.45,2.4,.07,1.37-.51,2.34-1.77,2.9-1.17,1.37-2.08,2.9-2.71,4.59-.05,1.21-.4,2.25-1.64,2.76-.77,.65-1.26,1.46-1.47,2.45-.11,.6-.28,1.17-.9,1.46-1.21,1.5,.08,2.31,.89,3.26,.62,.23,.82,.7,.79,1.31,.2,.98,.68,1.79,1.47,2.4,.3,.09,.39,.28,.27,.58,.64,1.02,1.29,2.04,1.93,3.06,1.97,1.01,2.5,3.12,3.67,4.75,.72,1.15,1.5,2.28,1.76,3.65,0,.17,0,.34-.01,.51,1.7,3.01,3.4,6.02,5.12,9.06-4.2,1.08-4.33,1.06-6.33-2.23-4.27-7.02-8.5-14.07-12.77-21.1-1.12-1.85-9.02-3.24-10.41-1.83-.79,.8-.38,1.9-.39,2.86-.04,6.61-.04,13.21,0,19.82,0,1.76,.01,3.21-2.47,3.14-2.46-.08-1.99-1.74-1.99-3.15-.02-16.21-.02-32.41,0-48.62,0-1.43-.44-3.06,2-3.15,2.47-.09,2.48,1.34,2.46,3.11-.04,6.11,.06,12.22-.06,18.32-.04,2.17,.46,2.85,2.83,3.09,4.93,.5,7.98-1.03,10.21-5.67,2.63-5.48,6.14-10.54,9.26-15.78,.19-.32,.4-.64,.55-.98,1.05-2.35,3.35-2.77,4.99-1.78,1.71,1.04-.81,2.35-.91,3.69,.02,2.28-1.07,3.92-2.93,5.13Z"/>
      <path class="cls-6" d="M565.55,120.88c-4.55,7.63-8.92,15.29-13.63,22.73-1.62,2.56-1.66,4.36,0,6.91,4.48,6.89,8.64,13.99,12.88,21.04,.62,1.03,1.61,1.92,1.56,3.39-2.88,.89-4.72,.15-6.31-2.66-3.97-7.05-8.3-13.91-12.5-20.83-1.18-1.94-8.8-3.35-10.43-1.95-.9,.78-.5,1.87-.51,2.82-.03,6.61,0,13.22-.04,19.83,0,1.34,.65,3.07-1.9,3.16-2.48,.08-2.48-1.33-2.48-3.09,.02-16.22,.02-32.43,0-48.65,0-1.66-.2-3.21,2.39-3.16,2.54,.05,1.99,1.7,2,3.08,.04,6.11,.11,12.23-.03,18.34-.05,2.34,.51,3.08,3.04,3.32,4.81,.46,7.75-.99,9.92-5.52,2.63-5.48,6.3-10.45,9.2-15.82,1.54-2.85,3.34-4.11,6.84-2.93Z"/>
      <path class="cls-4" d="M666.23,74.98c0-5.73-.06-11.47,.01-17.2,.09-7.2,3.45-10.53,10.56-10.6,3.49-.03,6.98-.05,10.48,0,7.81,.12,12.8,7.38,10.17,14.67-.49,1.35-1.47,1.09-2.41,1.14-1.11,.06-2-.2-1.99-1.58,0-1.62,.02-3.24-.03-4.86-.11-3.16-1.83-4.82-4.94-4.88-4.11-.08-8.23-.05-12.35-.01-3.18,.03-4.98,1.82-5,4.86-.1,12.34-.11,24.67,0,37.01,.03,3.07,1.9,4.72,5.11,4.7,3.99-.03,7.98,.07,11.97-.03,3.69-.08,5.1-1.59,5.22-5.3,.05-1.49,.01-2.99,.03-4.49,.02-1.36,.92-1.58,2.03-1.57,1.17,0,2.09,.04,2.42,1.61,1.84,8.69-2.49,14.17-11.33,14.19-3.24,0-6.49,.03-9.73,0-6.74-.06-10.09-3.31-10.2-10.09-.1-5.86-.02-11.71-.02-17.57Z"/>
      <path class="cls-6" d="M461.98,247.62c1.6,.1,3.2,.06,4.8,.28,2.43-.65,2.74-2.62,2.84-4.65,.1-1.98,.11-3.97,.16-5.96,1.42-1.17,2.81-1.24,4.16,.12-.02,.25,.07,.45,.27,.61,.58,.74,.7,1.49,.05,2.25,0,1,0,2,0,2.99,.56,.78,.64,1.52-.17,2.19-2.35,5.97-4.66,7.51-11.28,7.52-3.49,0-6.98,.06-10.47-.02-5.81-.13-9.43-3.54-9.48-9.29-.11-12.33-.12-24.65,0-36.98,.05-5.63,3.58-9.01,9.17-9.15,3.49-.09,6.98-.03,10.47-.02,7.41,0,9.48,1.48,11.72,8.31,.73,.99,.84,1.99,.04,3,0,.5,0,1,0,1.5,.6,.77,.57,1.51-.09,2.23-1.3,1.27-2.89,.67-4.39,.67l.05,.03c-.07-2.24-.07-4.49-.24-6.72-.12-1.49-.47-2.97-2.11-3.63-5.99,.16-11.99,.18-17.98-.08-2.1,.9-2.24,2.74-2.24,4.64,0,11.89,0,23.77,0,35.66,0,1.49,.03,2.99,1.48,3.94"/>
      <path class="cls-6" d="M594.81,156.37c3.6-11.11,7.2-22.23,10.8-33.34,.47-1.46,.88-2.71,2.95-2.62,1.93,.08,2.44,.64,1.84,2.44-5.23,15.82-10.37,31.67-15.71,47.44-1.55,4.59-5.74,6.44-10.54,5.43-1.54-.32-1.59-1.27-1.62-2.44-.05-1.47,.68-1.81,2.05-1.94,6.71-.64,8.55-3.86,5.95-10.2-5.04-12.31-10.11-24.61-15.05-36.96-.42-1.05-2.42-2.71-.06-3.59,1.85-.7,3.4,.03,4.3,2.29,4.47,11.2,9.12,22.32,13.7,33.48,.45,.59,.9,1.84,1.38,.02Z"/>
      <path class="cls-5" d="M652.29,221.91c0,6.85,.06,13.7-.02,20.56-.08,7.24-3.39,10.48-10.57,10.52-3.87,.02-7.74,.15-11.59-.05-6.15-.31-10.35-6.38-8.78-12.28,.41-1.54,1.45-1.44,2.57-1.47,1.19-.03,1.89,.42,1.83,1.73-.04,.87-.04,1.75,.03,2.61,.26,3.23,1.91,5.02,5.28,5,3.87-.02,7.73-.01,11.6,0,3.39,0,5.18-1.84,5.2-5.05,.1-13.08,.01-26.16,.09-39.24,.01-1.98-.89-2.22-2.5-2.19-3.49,.07-6.98-.02-10.47,.04-1.59,.03-2.62-.26-2.6-2.21,.02-1.97,1.11-2.19,2.66-2.18,4.74,.04,9.48,.15,14.21-.04,2.62-.1,3.13,1.02,3.1,3.32-.1,6.98-.04,13.95-.04,20.93Z"/>
      <path class="cls-6" d="M679.6,149.86c0-7.36-.09-14.71,.05-22.07,.04-2.26-.5-3.07-2.88-2.93-3.61,.21-7.24,0-10.85,.08-1.68,.04-2.54-.41-2.56-2.27-.02-1.89,.89-2.24,2.55-2.23,10.61,.05,21.21,.04,31.82,.01,1.55,0,2.64,.15,2.66,2.14,.02,2.19-1.22,2.36-2.9,2.33-3.49-.06-7,.16-10.48-.07-2.59-.17-3.03,.85-3.02,3.17,.09,14.71,.06,29.42,.03,44.14,0,1.35,.62,3.07-1.92,3.15-2.41,.08-2.55-1.17-2.53-3.01,.06-7.48,.02-14.96,.02-22.44Z"/>
      <path class="cls-5" d="M768.75,145.94c.07-6.3,.08-12.6,.24-18.89,.05-1.96-.89-2.17-2.48-2.15-4.45,.06-8.91,0-13.36,0-.89-3.19-.27-4.63,3.62-4.52,9.96,.29,19.93,.09,29.89,.11,1.41,0,3.01-.48,3.06,2.02,.05,2.52-1.38,2.45-3.12,2.43-3.11-.04-6.24,.19-9.34-.07-3.03-.25-4.01,.6-3.97,3.81,.19,14.43,.08,28.87,.08,43.31,0,1.75,.36,3.56-2.5,3.33-2.44-.2-1.9-1.88-1.91-3.25-.11-8.7-.16-17.41-.23-26.11Z"/>
      <path class="cls-4" d="M469.84,61.52c.3-1.04,.6-2.07,.9-3.11,.16,0,.32,.02,.48,.03v43.37c-1.03-1.19-.56-2.63-.57-3.95-.04-10.84,0-21.69-.06-32.53,0-1.27,.64-2.77-.75-3.81Z"/>
      <path class="cls-1" d="M582.12,90.53c0,.97-.3,1.79-1.17,2.38-.62-.99,.22-1.62,.44-2.38,.24,.12,.48,.12,.72,0Z"/>
      <path class="cls-6" d="M477.32,147.99c0,4.24,.06,8.48-.02,12.71-.11,5.95-3.36,9.17-9.3,9.35-1.25,.04-2.51,.13-3.74-.01-2.55-.29-4.14,.24-3.62,3.31,.3,1.81-.76,2.38-2.44,2.37-1.73-.02-2.21-.99-1.97-2.41,.55-3.15-1.19-3.48-3.67-3.27-1.61,.14-3.25,.08-4.86-.04-4.57-.34-7.93-3.21-8.06-7.77-.26-9.59-.26-19.19,.02-28.78,.13-4.51,3.57-7.39,8.13-7.73,1.37-.1,2.75-.11,4.11-.04,2.66,.15,5.12,.25,4.34-3.7-.31-1.57,.84-1.78,2.1-1.8,1.48-.03,2.59,.4,2.29,2.08-.62,3.38,1.32,3.65,3.85,3.42,.99-.09,1.99-.03,2.99-.01,6.54,.1,9.77,3.35,9.84,9.98,.05,4.11,0,8.23,0,12.34Zm-21.04-14.54c.17-2.97-.91-3.78-3.59-3.37-.73,.11-1.5,.01-2.25,.02-5.33,.04-6.67,1.31-6.7,6.57-.04,6.74-.01,13.47,0,20.21,0,8.3,.58,8.86,8.98,8.8,.25,0,.5-.03,.75,0,2.08,.3,2.84-.49,2.78-2.67-.15-4.99-.05-9.98-.05-14.97,0-4.87-.21-9.74,.08-14.59Zm4.38,26.3q0,6.03,6.15,5.92c4.76-.09,6.02-1.29,6.04-5.96,.03-6.97,0-13.94,0-20.91,0-8.47-.32-8.62-8.9-8.79-3-.06-3.47,.99-3.36,3.6,.19,4.72,.06,9.46,.06,14.19,0,3.98,0,7.97,0,11.95Z"/>
      <path class="cls-6" d="M531.83,224.92c0-5.86-.04-11.71,0-17.57,.06-6.41,3.3-9.72,9.6-9.81,4.36-.06,8.73-.08,13.09,0,5.4,.11,8.97,3.02,9.08,8.37,.27,12.83,.28,25.66,.03,38.49-.11,5.49-3.75,8.45-9.35,8.56-4.36,.08-8.73,.09-13.09,0-5.86-.13-9.26-3.52-9.34-9.35-.09-6.23-.02-12.46-.02-18.69Zm27.56-17.2c-.06-4.2-1.53-5.68-5.58-5.75-4.11-.07-8.22,0-12.34-.01-3.32-.01-5.19,1.54-5.2,4.93-.03,12.2-.02,24.4,0,36.6,0,3.36,1.78,5.02,5.12,5.04,3.99,.02,7.98,.03,11.96,0,4.51-.04,6.01-1.51,6.06-6.07,.06-5.73,.01-11.45,.01-17.18,0-5.85,.06-11.7-.02-17.56Z"/>
      <path class="cls-4" d="M487.11,92.96c.75-.63,.68-1.53,.76-2.37-.22-.88-.17-1.69,.67-2.25,.51-.39,.64-.93,.55-1.53-.47-1.47-.01-2.66,1.06-3.69,.64-.62,.63-1.43,.64-2.24l-.02,.04c.72-.63,.73-1.48,.73-2.34-.17-1.12-.36-2.25,.93-2.91,.63-2.02,1.26-4.04,1.89-6.07-.14-.28-.11-.53,.14-.74,.8-.84,.79-1.93,.92-2.97-.21-.84-.21-1.63,.64-2.16,.52-.43,.65-.99,.57-1.63-.48-1.21,.07-2.13,.84-2.99,.08-.23,.16-.46,.24-.69-.29-2.82-.08-5.48,2.3-7.47,.69-2.58,2.01-4.14,4.96-3.04,.54,.06,.91,.36,1.19,.81,.41,.89,.51,1.88,.83,2.79,.26,.78,.34,1.56,.17,2.37,0,.87,.02,1.74,.73,2.4,.84,.53,.85,1.3,.61,2.14,.08,.23,.16,.46,.25,.68,.25,.13,.35,.29,.31,.48-.05,.2-.1,.29-.17,.29,.23,1.35,.45,2.7,1.28,3.86,.25,.09,.35,.21,.31,.36-.05,.17-.1,.25-.17,.25,.19,1.6,.55,3.14,1.42,4.52,.17,.14,.25,.29,.24,.46-.02,.18-.05,.27-.09,.27-.08,.6,.04,1.12,.55,1.5,.3,.11,.42,.25,.37,.43-.05,.2-.12,.3-.21,.3,.39,1.27,.78,2.54,1.17,3.82,1.32,.65,1.12,1.79,.95,2.92,0,.86,0,1.71,.73,2.34l-.02-.04c-.01,1.06,.18,2.07,.86,2.92,.86,.84,1.27,1.8,.84,3-.08,.63,.07,1.18,.57,1.61,1.35,1.22,1.78,2.7,1.29,4.45,.23,1.01,.13,2.13,.96,2.94,.85,.83,1.39,1.75,.86,2.98-.06,.66,0,1.27,.56,1.73,.28,.04,.39,.13,.35,.27-.06,.16-.12,.24-.2,.24-1.38,2.44-2.98,1.96-4.55,.25-.39-.42-.46-1.14-.66-1.72q-2.56-7.79-10.93-7.8c-.99,0-1.99,0-2.98,0-3.1,.03-6.64-.86-9.19,.35-2.73,1.29-2.41,5.37-3.32,8.25-.89,2.78-3.01,1.98-4.88,2.09-.92-.61-.76-1.26-.09-1.94,.56-.46,.63-1.07,.56-1.73-.56-2.07,.31-3.71,1.56-5.24,.2-.16,.25-.36,.15-.6v.02Zm15.62-35.22c-2.85,9.34-5.68,18.68-8.57,28-.5,1.63,.45,1.61,1.53,1.61,4.86,0,9.72,0,14.58,0,1.27,0,2.2-.02,1.63-1.83-2.88-9.24-5.67-18.51-8.48-27.77-.23,0-.46-.02-.69-.03Z"/>
      <path class="cls-6" d="M521.36,174.86c-3.2,1.17-4.52,.02-5.35-3.07-1.94-7.22-2.1-7.18-9.47-7.18-1.5,0-2.99-.02-4.49,0-3.11,.04-6.73-.87-9.18,.42-2.37,1.24-2.2,5.24-3,8.06-.66,2.33-2.31,2.57-4.02,2.06-2.27-.68-.52-2.33-.24-3.27,4.8-16.07,9.72-32.1,14.64-48.13,.44-1.44,.3-3.27,2.72-3.33,2.37-.05,2.42,1.61,2.88,3.13,4.98,16.4,9.97,32.8,14.96,49.21,.21,.69,.36,1.39,.55,2.1Zm-18.28-45.3c-3.26,10.65-6.27,20.46-9.33,30.45h18.66c-3.07-10.02-6.07-19.82-9.33-30.45Z"/>
    </g>
  </g>
</svg>