<?xml version="1.0" encoding="UTF-8"?>
<svg id="Layer_2" data-name="Layer 2" xmlns="http://www.w3.org/2000/svg" viewBox="0 0 413.66 372.71">
  <defs>
    <style>
      .cls-1 {
        fill: #bbbcbf;
      }

      .cls-2 {
        fill: #e45830;
      }

      .cls-3 {
        fill: #39393b;
      }
    </style>
  </defs>
  <g id="Layer_1-2" data-name="Layer 1">
    <g>
      <path class="cls-1" d="M302.53,206.48V111.7c-5.17,2.17-9.54,5.16-14.09,7.78-26.44,15.22-52.85,30.49-79.23,45.81-2.26,1.31-3.89,.53-5.83-.6-29.63-17.16-59.29-34.26-88.95-51.37-.65-.37-1.33-.68-2-1.02-1.6,.13-2.88-.72-4.17-1.46C73.09,90.51,37.87,70.24,2.67,49.93c-.98-.56-1.93-1.14-2.67-2,4.61-3.48,10.18-4.97,15.36-7.23C42.97,28.59,70.67,16.68,98.35,4.7c1.72-.74,3.6-1.23,5.12-2.26,5.83-3.93,10.99-2.7,16.81,.66,16.19,9.35,32.68,18.17,49.06,27.19,11.68,6.43,23.4,12.8,35.04,19.32,1.76,.99,3.06,.98,4.79,.05,26.01-14.01,52.06-27.96,78.1-41.93,4.29-2.3,8.6-4.55,12.87-6.88,1.53-.83,2.88-.99,4.58-.25,32.04,13.81,64.12,27.53,96.15,41.35,4.27,1.84,8.9,3.01,12.64,5.98-1.67,1.96-4.01,2.93-6.16,4.16-33.11,18.97-66.05,38.25-99.23,57.1-2.94,1.67-3.71,3.9-3.7,7.05,.07,28.17,.05,56.34,.02,84.51,0,1.96,.39,4.01-.81,5.82-.39,.29-.76,.26-1.09-.09Z"/>
      <path class="cls-3" d="M0,47.93c1.13-.3,1.9,.49,2.73,.97,36.28,20.89,72.56,41.81,108.83,62.72,.32,.18,.6,.45,.89,.68-.14,30.43-.29,60.86-.38,91.3,0,2.02-.26,3.36-2.48,4.29-35.6,14.89-71.16,29.89-106.73,44.85-.79,.33-1.6,.6-2.86,1.07V47.93Z"/>
      <path class="cls-3" d="M413.66,101.03c-.04,26.19-.1,52.39-.12,78.58-.02,24.57,0,49.14,0,73.82-1.7,.2-2.92-.76-4.22-1.32-32.18-13.71-64.35-27.48-96.54-41.19-3.09-1.32-6.28-2.37-9.43-3.55-.25-.23-.35-.5-.29-.83,.09-1.49,.25-2.97,.25-4.46,0-29.18,.03-58.36-.09-87.54-.01-2.73,.83-4.19,3.2-5.55,34.71-19.91,69.36-39.92,104.04-59.89,.94-.54,1.78-1.44,3.04-1.18,.05,4.98,.1,9.96,.16,14.93"/>
      <path class="cls-3" d="M206.74,372.7c-1.24,.08-2.05-.81-2.99-1.35-66.36-38.01-132.71-76.03-199.06-114.05-.86-.49-1.68-1.04-2.99-1.85,4.79-2.03,9.21-3.9,13.63-5.77,31.66-13.33,63.32-26.63,94.95-40.01,2.28-.96,3.99-.91,6.2,.4,29.78,17.67,59.63,35.22,89.46,52.8,.75,.58,.97,1.41,1.12,2.29,.14,.86,.18,1.73,.16,2.61-.54,33.09,1.06,66.17,.75,99.26-.02,1.96,.26,4.03-1.23,5.69Z"/>
      <path class="cls-2" d="M206.74,372.7c-.27-36.61-.53-73.22-.8-109.83,32.2-18.8,64.39-37.59,96.59-56.39,.17,.06,.35,.08,.53,.06,.1,.28,.19,.56,.29,.83-.07,1.61-.21,3.23-.21,4.84-.01,34.39-.04,68.78,.06,103.17,0,2.86-.81,4.41-3.37,5.83-30.06,16.66-60.05,33.46-90.06,50.2-.95,.53-1.79,1.4-3.02,1.28Z"/>
    </g>
  </g>
</svg>